<svg width="100%" viewBox="0 0 598 221" xmlns="http://www.w3.org/2000/svg" xmlns:xlink="http://www.w3.org/1999/xlink">
<g id="graph0" class="graph" transform="scale(1 1) rotate(0) translate(4 216.4)">

<polygon fill="#ffffff" stroke="transparent" points="-4,4 -4,-216.4 593.3996,-216.4 593.3996,4 -4,4"></polygon>
<text text-anchor="middle" x="294.6998" y="-194" font-family="Roboto Condensed, sans-serif" font-size="16.00" fill="#000000">egg-session</text>
<!-- egg&#45;session@3.1.0 -->
<g id="node1" class="node module-egg_session maintainer-atian25 maintainer-dead_horse maintainer-eggjs maintainer-fengmk2 maintainer-popomore license-unspecified">

<path fill="none" stroke="#000000" d="M83.2061,-111.3011C83.2061,-111.3011 6.2421,-111.3011 6.2421,-111.3011 3.0085,-111.3011 -.2252,-108.0674 -.2252,-104.8337 -.2252,-104.8337 -.2252,-98.3663 -.2252,-98.3663 -.2252,-95.1326 3.0085,-91.8989 6.2421,-91.8989 6.2421,-91.8989 83.2061,-91.8989 83.2061,-91.8989 86.4397,-91.8989 89.6734,-95.1326 89.6734,-98.3663 89.6734,-98.3663 89.6734,-104.8337 89.6734,-104.8337 89.6734,-108.0674 86.4397,-111.3011 83.2061,-111.3011"></path>
<text text-anchor="middle" x="44.7241" y="-98.3" font-family="Roboto Condensed, sans-serif" font-size="11.00" fill="#000000">egg-session@3.1.0</text>
</g>
<!-- koa&#45;session@5.12.3 -->
<g id="node2" class="node module-koa_session maintainer-aheckmann maintainer-coderhaoxin maintainer-dead_horse maintainer-eivifj maintainer-fengmk2 maintainer-jongleberry maintainer-juliangruber maintainer-tjholowaychuk license-mit">

<path fill="none" stroke="#000000" d="M213.9031,-111.3011C213.9031,-111.3011 131.9415,-111.3011 131.9415,-111.3011 128.7078,-111.3011 125.4741,-108.0674 125.4741,-104.8337 125.4741,-104.8337 125.4741,-98.3663 125.4741,-98.3663 125.4741,-95.1326 128.7078,-91.8989 131.9415,-91.8989 131.9415,-91.8989 213.9031,-91.8989 213.9031,-91.8989 217.1368,-91.8989 220.3705,-95.1326 220.3705,-98.3663 220.3705,-98.3663 220.3705,-104.8337 220.3705,-104.8337 220.3705,-108.0674 217.1368,-111.3011 213.9031,-111.3011"></path>
<text text-anchor="middle" x="172.9223" y="-98.3" font-family="Roboto Condensed, sans-serif" font-size="11.00" fill="#000000">koa-session@5.12.3</text>
</g>
<!-- egg&#45;session@3.1.0&#45;&gt;koa&#45;session@5.12.3 -->
<g id="edge1" class="edge">

<path fill="none" stroke="#000000" d="M89.5616,-101.6C97.8651,-101.6 106.644,-101.6 115.2659,-101.6"></path>
<polygon fill="#000000" stroke="#000000" points="115.2772,-105.1001 125.2771,-101.6 115.2771,-98.1001 115.2772,-105.1001"></polygon>
</g>
<!-- uuid@3.3.3 -->
<g id="node3" class="node module-uuid maintainer-broofa maintainer-defunctzombie maintainer-vvo license-mit">

<path fill="none" stroke="#000000" d="M319.0618,-167.3011C319.0618,-167.3011 274.6212,-167.3011 274.6212,-167.3011 271.3875,-167.3011 268.1539,-164.0674 268.1539,-160.8337 268.1539,-160.8337 268.1539,-154.3663 268.1539,-154.3663 268.1539,-151.1326 271.3875,-147.8989 274.6212,-147.8989 274.6212,-147.8989 319.0618,-147.8989 319.0618,-147.8989 322.2955,-147.8989 325.5291,-151.1326 325.5291,-154.3663 325.5291,-154.3663 325.5291,-160.8337 325.5291,-160.8337 325.5291,-164.0674 322.2955,-167.3011 319.0618,-167.3011"></path>
<text text-anchor="middle" x="296.8415" y="-154.3" font-family="Roboto Condensed, sans-serif" font-size="11.00" fill="#000000">uuid@3.3.3</text>
</g>
<!-- koa&#45;session@5.12.3&#45;&gt;uuid@3.3.3 -->
<g id="edge2" class="edge">

<path fill="none" stroke="#000000" d="M194.1715,-111.3332C211.0281,-119.0399 235.1974,-130.0577 256.3964,-139.6 259.41,-140.9565 262.5524,-142.3652 265.6951,-143.7702"></path>
<polygon fill="#000000" stroke="#000000" points="264.438,-147.0418 274.9965,-147.9185 267.2893,-140.6488 264.438,-147.0418"></polygon>
</g>
<!-- crc@3.8.0 -->
<g id="node4" class="node module-crc maintainer-alexgorbatchev license-mit">

<path fill="none" stroke="#000000" d="M315.9336,-130.3011C315.9336,-130.3011 277.7494,-130.3011 277.7494,-130.3011 274.5157,-130.3011 271.282,-127.0674 271.282,-123.8337 271.282,-123.8337 271.282,-117.3663 271.282,-117.3663 271.282,-114.1326 274.5157,-110.8989 277.7494,-110.8989 277.7494,-110.8989 315.9336,-110.8989 315.9336,-110.8989 319.1673,-110.8989 322.401,-114.1326 322.401,-117.3663 322.401,-117.3663 322.401,-123.8337 322.401,-123.8337 322.401,-127.0674 319.1673,-130.3011 315.9336,-130.3011"></path>
<text text-anchor="middle" x="296.8415" y="-117.3" font-family="Roboto Condensed, sans-serif" font-size="11.00" fill="#000000">crc@3.8.0</text>
</g>
<!-- koa&#45;session@5.12.3&#45;&gt;crc@3.8.0 -->
<g id="edge3" class="edge">

<path fill="none" stroke="#000000" d="M220.4783,-108.8916C233.9157,-110.9519 248.31,-113.1589 260.9385,-115.0951"></path>
<polygon fill="#000000" stroke="#000000" points="260.6563,-118.5927 271.0713,-116.6488 261.7173,-111.6736 260.6563,-118.5927"></polygon>
</g>
<!-- is&#45;type&#45;of@1.2.1 -->
<g id="node5" class="node module-is_type_of maintainer-dead_horse maintainer-fengmk2 license-mit">

<path fill="none" stroke="#000000" d="M330.7644,-93.3011C330.7644,-93.3011 262.9186,-93.3011 262.9186,-93.3011 259.6849,-93.3011 256.4512,-90.0674 256.4512,-86.8337 256.4512,-86.8337 256.4512,-80.3663 256.4512,-80.3663 256.4512,-77.1326 259.6849,-73.8989 262.9186,-73.8989 262.9186,-73.8989 330.7644,-73.8989 330.7644,-73.8989 333.9981,-73.8989 337.2318,-77.1326 337.2318,-80.3663 337.2318,-80.3663 337.2318,-86.8337 337.2318,-86.8337 337.2318,-90.0674 333.9981,-93.3011 330.7644,-93.3011"></path>
<text text-anchor="middle" x="296.8415" y="-80.3" font-family="Roboto Condensed, sans-serif" font-size="11.00" fill="#000000">is-type-of@1.2.1</text>
</g>
<!-- koa&#45;session@5.12.3&#45;&gt;is&#45;type&#45;of@1.2.1 -->
<g id="edge4" class="edge">

<path fill="none" stroke="#000000" d="M220.4783,-94.6922C228.8244,-93.4799 237.5397,-92.2139 245.9717,-90.9891"></path>
<polygon fill="#000000" stroke="#000000" points="246.6796,-94.4231 256.0726,-89.5219 245.6733,-87.4958 246.6796,-94.4231"></polygon>
</g>
<!-- debug@3.2.6 -->
<g id="node6" class="node module-debug maintainer-kolban maintainer-qix maintainer-qix_ maintainer-thebigredgeek maintainer-tjholowaychuk maintainer-tootallnate license-mit">

<path fill="none" stroke="#000000" d="M322.8869,-38.3011C322.8869,-38.3011 270.7961,-38.3011 270.7961,-38.3011 267.5624,-38.3011 264.3287,-35.0674 264.3287,-31.8337 264.3287,-31.8337 264.3287,-25.3663 264.3287,-25.3663 264.3287,-22.1326 267.5624,-18.8989 270.7961,-18.8989 270.7961,-18.8989 322.8869,-18.8989 322.8869,-18.8989 326.1206,-18.8989 329.3543,-22.1326 329.3543,-25.3663 329.3543,-25.3663 329.3543,-31.8337 329.3543,-31.8337 329.3543,-35.0674 326.1206,-38.3011 322.8869,-38.3011"></path>
<text text-anchor="middle" x="296.8415" y="-25.3" font-family="Roboto Condensed, sans-serif" font-size="11.00" fill="#000000">debug@3.2.6</text>
</g>
<!-- koa&#45;session@5.12.3&#45;&gt;debug@3.2.6 -->
<g id="edge5" class="edge">

<path fill="none" stroke="#000000" d="M189.3778,-91.9062C210.3942,-79.5256 246.9775,-57.9746 271.5471,-43.5008"></path>
<polygon fill="#000000" stroke="#000000" points="273.4783,-46.4253 280.3179,-38.3339 269.9253,-40.394 273.4783,-46.4253"></polygon>
</g>
<!-- buffer@5.4.3 -->
<g id="node7" class="node module-buffer maintainer-feross license-mit">

<path fill="none" stroke="#000000" d="M449.5391,-167.3011C449.5391,-167.3011 397.4768,-167.3011 397.4768,-167.3011 394.2431,-167.3011 391.0094,-164.0674 391.0094,-160.8337 391.0094,-160.8337 391.0094,-154.3663 391.0094,-154.3663 391.0094,-151.1326 394.2431,-147.8989 397.4768,-147.8989 397.4768,-147.8989 449.5391,-147.8989 449.5391,-147.8989 452.7728,-147.8989 456.0065,-151.1326 456.0065,-154.3663 456.0065,-154.3663 456.0065,-160.8337 456.0065,-160.8337 456.0065,-164.0674 452.7728,-167.3011 449.5391,-167.3011"></path>
<text text-anchor="middle" x="423.5079" y="-154.3" font-family="Roboto Condensed, sans-serif" font-size="11.00" fill="#000000">buffer@5.4.3</text>
</g>
<!-- crc@3.8.0&#45;&gt;buffer@5.4.3 -->
<g id="edge6" class="edge">

<path fill="none" stroke="#000000" d="M322.4743,-128.0875C339.2184,-132.9785 361.4902,-139.4842 380.8614,-145.1427"></path>
<polygon fill="#000000" stroke="#000000" points="380.102,-148.5671 390.6822,-148.0114 382.0648,-141.8479 380.102,-148.5671"></polygon>
</g>
<!-- core&#45;util&#45;is@1.0.2 -->
<g id="node8" class="node module-core_util_is maintainer-isaacs license-mit">

<path fill="none" stroke="#000000" d="M460.4284,-130.3011C460.4284,-130.3011 386.5875,-130.3011 386.5875,-130.3011 383.3539,-130.3011 380.1202,-127.0674 380.1202,-123.8337 380.1202,-123.8337 380.1202,-117.3663 380.1202,-117.3663 380.1202,-114.1326 383.3539,-110.8989 386.5875,-110.8989 386.5875,-110.8989 460.4284,-110.8989 460.4284,-110.8989 463.662,-110.8989 466.8957,-114.1326 466.8957,-117.3663 466.8957,-117.3663 466.8957,-123.8337 466.8957,-123.8337 466.8957,-127.0674 463.662,-130.3011 460.4284,-130.3011"></path>
<text text-anchor="middle" x="423.5079" y="-117.3" font-family="Roboto Condensed, sans-serif" font-size="11.00" fill="#000000">core-util-is@1.0.2</text>
</g>
<!-- is&#45;type&#45;of@1.2.1&#45;&gt;core&#45;util&#45;is@1.0.2 -->
<g id="edge7" class="edge">

<path fill="none" stroke="#000000" d="M329.791,-93.2247C345.2096,-97.7286 363.7769,-103.1522 380.3035,-107.9797"></path>
<polygon fill="#000000" stroke="#000000" points="379.7032,-111.4506 390.2834,-110.8949 381.666,-104.7314 379.7032,-111.4506"></polygon>
</g>
<!-- is&#45;class&#45;hotfix@0.0.6 -->
<g id="node9" class="node module-is_class_hotfix maintainer-fengmk2 license-mit">

<path fill="none" stroke="#000000" d="M467.4843,-93.3011C467.4843,-93.3011 379.5316,-93.3011 379.5316,-93.3011 376.298,-93.3011 373.0643,-90.0674 373.0643,-86.8337 373.0643,-86.8337 373.0643,-80.3663 373.0643,-80.3663 373.0643,-77.1326 376.298,-73.8989 379.5316,-73.8989 379.5316,-73.8989 467.4843,-73.8989 467.4843,-73.8989 470.7179,-73.8989 473.9516,-77.1326 473.9516,-80.3663 473.9516,-80.3663 473.9516,-86.8337 473.9516,-86.8337 473.9516,-90.0674 470.7179,-93.3011 467.4843,-93.3011"></path>
<text text-anchor="middle" x="423.5079" y="-80.3" font-family="Roboto Condensed, sans-serif" font-size="11.00" fill="#000000">is-class-hotfix@0.0.6</text>
</g>
<!-- is&#45;type&#45;of@1.2.1&#45;&gt;is&#45;class&#45;hotfix@0.0.6 -->
<g id="edge8" class="edge">

<path fill="none" stroke="#000000" d="M337.2678,-83.6C345.49,-83.6 354.3074,-83.6 363.0516,-83.6"></path>
<polygon fill="#000000" stroke="#000000" points="363.2428,-87.1001 373.2428,-83.6 363.2427,-80.1001 363.2428,-87.1001"></polygon>
</g>
<!-- isstream@0.1.2 -->
<g id="node13" class="node module-isstream maintainer-rvagg license-mit">

<path fill="none" stroke="#000000" d="M454.325,-56.3011C454.325,-56.3011 392.6909,-56.3011 392.6909,-56.3011 389.4572,-56.3011 386.2235,-53.0674 386.2235,-49.8337 386.2235,-49.8337 386.2235,-43.3663 386.2235,-43.3663 386.2235,-40.1326 389.4572,-36.8989 392.6909,-36.8989 392.6909,-36.8989 454.325,-36.8989 454.325,-36.8989 457.5587,-36.8989 460.7924,-40.1326 460.7924,-43.3663 460.7924,-43.3663 460.7924,-49.8337 460.7924,-49.8337 460.7924,-53.0674 457.5587,-56.3011 454.325,-56.3011"></path>
<text text-anchor="middle" x="423.5079" y="-43.3" font-family="Roboto Condensed, sans-serif" font-size="11.00" fill="#000000">isstream@0.1.2</text>
</g>
<!-- is&#45;type&#45;of@1.2.1&#45;&gt;isstream@0.1.2 -->
<g id="edge12" class="edge">

<path fill="none" stroke="#000000" d="M329.791,-73.9753C345.2096,-69.4714 363.7769,-64.0478 380.3035,-59.2203"></path>
<polygon fill="#000000" stroke="#000000" points="381.666,-62.4686 390.2834,-56.3051 379.7032,-55.7494 381.666,-62.4686"></polygon>
</g>
<!-- ms@2.1.2 -->
<g id="node10" class="node module-ms maintainer-alexaltea maintainer-anatrajkovska maintainer-andybitz maintainer-arunoda maintainer-arzafran maintainer-atcastle maintainer-b3nnyl maintainer-caarlos0 maintainer-codetheory maintainer-coetry maintainer-dav_is maintainer-fivepointseven maintainer-guybedford maintainer-hharnisc maintainer-huvik maintainer-iamevilrabbit maintainer-igorklopov maintainer-ijjk maintainer-janicklas_ralph maintainer-javivelasco maintainer-joecohens maintainer-juancampa maintainer-leo maintainer-lfades maintainer-lucleray maintainer-manovotny maintainer-marcosnils maintainer-matheuss maintainer-mfix22 maintainer-mglagola maintainer-msweeneydev maintainer-nkzawa maintainer-olliv maintainer-paco maintainer-paulogdm maintainer-quietshu maintainer-rabaut maintainer-ragojose maintainer-rauchg maintainer-sarupbanskota maintainer-skllcrn maintainer-sophearak maintainer-styfle maintainer-timer maintainer-timneutkens maintainer-tootallnate maintainer-umegaya maintainer-williamli maintainer-zeit_bot license-mit">

<path fill="none" stroke="#000000" d="M442.5053,-19.3011C442.5053,-19.3011 404.5106,-19.3011 404.5106,-19.3011 401.2769,-19.3011 398.0432,-16.0674 398.0432,-12.8337 398.0432,-12.8337 398.0432,-6.3663 398.0432,-6.3663 398.0432,-3.1326 401.2769,.1011 404.5106,.1011 404.5106,.1011 442.5053,.1011 442.5053,.1011 445.739,.1011 448.9727,-3.1326 448.9727,-6.3663 448.9727,-6.3663 448.9727,-12.8337 448.9727,-12.8337 448.9727,-16.0674 445.739,-19.3011 442.5053,-19.3011"></path>
<text text-anchor="middle" x="423.5079" y="-6.3" font-family="Roboto Condensed, sans-serif" font-size="11.00" fill="#000000">ms@2.1.2</text>
</g>
<!-- debug@3.2.6&#45;&gt;ms@2.1.2 -->
<g id="edge9" class="edge">

<path fill="none" stroke="#000000" d="M329.4613,-23.707C347.3142,-21.0291 369.4633,-17.7067 387.7815,-14.959"></path>
<polygon fill="#000000" stroke="#000000" points="388.4167,-18.4029 397.7869,-13.4582 387.3783,-11.4804 388.4167,-18.4029"></polygon>
</g>
<!-- base64&#45;js@1.3.1 -->
<g id="node11" class="node module-base64_js maintainer-beatgammit maintainer-feross license-mit">

<path fill="none" stroke="#000000" d="M582.7681,-185.3011C582.7681,-185.3011 516.3608,-185.3011 516.3608,-185.3011 513.1272,-185.3011 509.8935,-182.0674 509.8935,-178.8337 509.8935,-178.8337 509.8935,-172.3663 509.8935,-172.3663 509.8935,-169.1326 513.1272,-165.8989 516.3608,-165.8989 516.3608,-165.8989 582.7681,-165.8989 582.7681,-165.8989 586.0017,-165.8989 589.2354,-169.1326 589.2354,-172.3663 589.2354,-172.3663 589.2354,-178.8337 589.2354,-178.8337 589.2354,-182.0674 586.0017,-185.3011 582.7681,-185.3011"></path>
<text text-anchor="middle" x="549.5645" y="-172.3" font-family="Roboto Condensed, sans-serif" font-size="11.00" fill="#000000">base64-js@1.3.1</text>
</g>
<!-- buffer@5.4.3&#45;&gt;base64&#45;js@1.3.1 -->
<g id="edge10" class="edge">

<path fill="none" stroke="#000000" d="M456.2987,-162.2823C469.5755,-164.1781 485.1982,-166.4089 499.8213,-168.497"></path>
<polygon fill="#000000" stroke="#000000" points="499.3499,-171.9651 509.7443,-169.914 500.3395,-165.0354 499.3499,-171.9651"></polygon>
</g>
<!-- ieee754@1.1.13 -->
<g id="node12" class="node module-ieee754 maintainer-feross license-bsd_3_clause">

<path fill="none" stroke="#000000" d="M581.9328,-148.3011C581.9328,-148.3011 517.1961,-148.3011 517.1961,-148.3011 513.9625,-148.3011 510.7288,-145.0674 510.7288,-141.8337 510.7288,-141.8337 510.7288,-135.3663 510.7288,-135.3663 510.7288,-132.1326 513.9625,-128.8989 517.1961,-128.8989 517.1961,-128.8989 581.9328,-128.8989 581.9328,-128.8989 585.1664,-128.8989 588.4001,-132.1326 588.4001,-135.3663 588.4001,-135.3663 588.4001,-141.8337 588.4001,-141.8337 588.4001,-145.0674 585.1664,-148.3011 581.9328,-148.3011"></path>
<text text-anchor="middle" x="549.5645" y="-135.3" font-family="Roboto Condensed, sans-serif" font-size="11.00" fill="#000000">ieee754@1.1.13</text>
</g>
<!-- buffer@5.4.3&#45;&gt;ieee754@1.1.13 -->
<g id="edge11" class="edge">

<path fill="none" stroke="#000000" d="M456.2987,-152.6576C469.8126,-150.6207 485.7569,-148.2175 500.6038,-145.9797"></path>
<polygon fill="#000000" stroke="#000000" points="501.2971,-149.4148 510.6637,-144.4634 500.2537,-142.493 501.2971,-149.4148"></polygon>
</g>
</g>
</svg>